<svg width="94" height="46" viewBox="0 0 94 46" fill="none" xmlns="http://www.w3.org/2000/svg">
<path d="M16.36 33.5H4.6V7.25H16.36C18.7167 7.25 20.6883 7.495 22.275 7.985C23.8617 8.45167 25.1333 9.21 26.09 10.26C27.0467 11.31 27.7233 12.6633 28.12 14.32C28.54 15.9767 28.75 17.9833 28.75 20.34C28.75 22.6967 28.54 24.715 28.12 26.395C27.7233 28.0517 27.0467 29.405 26.09 30.455C25.1333 31.505 23.8617 32.275 22.275 32.765C20.6883 33.255 18.7167 33.5 16.36 33.5ZM16.5 13.97H13V26.78H16.5C17.6667 26.78 18.495 26.6517 18.985 26.395C19.4983 26.115 19.755 25.4967 19.755 24.54V16.21C19.755 15.2533 19.4983 14.6467 18.985 14.39C18.495 14.11 17.6667 13.97 16.5 13.97Z" fill="#5F32E4"/>
<path d="M51.9945 5.57V33.5H47.7945L45.9745 31.75C44.7845 33.3367 42.5912 34.13 39.3945 34.13C37.7145 34.13 36.3028 33.8267 35.1595 33.22C34.0162 32.6133 33.0828 31.8083 32.3595 30.805C31.6595 29.7783 31.1462 28.5883 30.8195 27.235C30.5162 25.8817 30.3645 24.47 30.3645 23C30.3645 21.6 30.5045 20.27 30.7845 19.01C31.0645 17.7267 31.5312 16.6067 32.1845 15.65C32.8378 14.6933 33.7012 13.935 34.7745 13.375C35.8478 12.7917 37.1778 12.5 38.7645 12.5H43.5945V6.2L51.9945 5.57ZM39.3945 19.78V28.005H40.6895C41.6462 28.005 42.3462 27.9233 42.7895 27.76C43.2562 27.5733 43.5245 27.1533 43.5945 26.5V17.995H42.2995C41.2728 17.995 40.5262 18.1 40.0595 18.31C39.6162 18.52 39.3945 19.01 39.3945 19.78ZM64.0898 33.5H55.6898V13.55L64.0898 12.5V33.5ZM55.2348 8.545C55.2348 7.915 55.3048 7.39 55.4448 6.97C55.5848 6.52667 55.8298 6.17667 56.1798 5.92C56.5298 5.64 57.0082 5.44167 57.6148 5.325C58.2215 5.20833 58.9915 5.15 59.9248 5.15C60.8582 5.15 61.6165 5.20833 62.1998 5.325C62.8065 5.44167 63.2848 5.64 63.6348 5.92C63.9848 6.17667 64.2298 6.52667 64.3698 6.97C64.5098 7.39 64.5798 7.915 64.5798 8.545C64.5798 9.175 64.5098 9.7 64.3698 10.12C64.2298 10.54 63.9848 10.89 63.6348 11.17C63.2848 11.4267 62.8065 11.6133 62.1998 11.73C61.6165 11.8233 60.8582 11.87 59.9248 11.87C59.2482 11.87 58.6182 11.8467 58.0348 11.8C57.4748 11.7533 56.9848 11.625 56.5648 11.415C56.1448 11.1817 55.8182 10.8433 55.5848 10.4C55.3515 9.95667 55.2348 9.33833 55.2348 8.545ZM67.8021 40.43V12.5H72.0021L73.5421 14.6C74.7788 12.78 77.0655 11.87 80.4021 11.87C82.0821 11.87 83.4938 12.1733 84.6371 12.78C85.7805 13.3867 86.7021 14.2033 87.4021 15.23C88.1255 16.2333 88.6388 17.4117 88.9421 18.765C89.2688 20.1183 89.4321 21.53 89.4321 23C89.4321 24.4233 89.2921 25.765 89.0121 27.025C88.7321 28.285 88.2655 29.405 87.6122 30.385C86.9588 31.3417 86.0955 32.1 85.0222 32.66C83.9488 33.22 82.6188 33.5 81.0321 33.5H76.2021V39.8L67.8021 40.43ZM76.2021 19.57V28.005H77.4971C78.5238 28.005 79.2588 27.9 79.7021 27.69C80.1688 27.48 80.4021 26.99 80.4021 26.22V17.995H79.1071C78.5005 17.995 78.0105 18.0183 77.6371 18.065C77.2638 18.1117 76.9371 18.2633 76.6571 18.52C76.3771 18.7533 76.2255 19.1033 76.2021 19.57Z" fill="black"/>
</svg>
