<svg width="14" height="14" viewBox="0 0 14 14" fill="none" xmlns="http://www.w3.org/2000/svg">
<rect width="14" height="14" rx="7" fill="#E0E0E0"/>
<path d="M10.8889 10.8889V10.1111C10.8889 9.69854 10.684 9.30288 10.3193 9.01115C9.95469 8.71943 9.46012 8.55554 8.94442 8.55554H5.05553C4.53983 8.55554 4.04525 8.71943 3.6806 9.01115C3.31594 9.30288 3.11108 9.69854 3.11108 10.1111V10.8889" fill="#E0E0E0"/>
<path d="M10.8889 10.8889V10.1111C10.8889 9.69854 10.684 9.30288 10.3193 9.01115C9.95469 8.71943 9.46012 8.55554 8.94442 8.55554H5.05553C4.53983 8.55554 4.04525 8.71943 3.6806 9.01115C3.31594 9.30288 3.11108 9.69854 3.11108 10.1111V10.8889" stroke="black" stroke-width="1.5" stroke-linecap="round" stroke-linejoin="round"/>
<path d="M6.99992 6.48959C8.1275 6.48959 9.04159 5.5755 9.04159 4.44792C9.04159 3.32034 8.1275 2.40625 6.99992 2.40625C5.87234 2.40625 4.95825 3.32034 4.95825 4.44792C4.95825 5.5755 5.87234 6.48959 6.99992 6.48959Z" fill="#E0E0E0" stroke="black" stroke-width="1.5" stroke-linecap="round" stroke-linejoin="round"/>
</svg>
