<svg width="25" height="25" viewBox="0 0 25 25" fill="none" xmlns="http://www.w3.org/2000/svg">
<g clip-path="url(#clip0_12_4958)">
<path d="M20.8334 9.89582C21.2478 9.89582 21.6452 10.0604 21.9383 10.3535C22.2313 10.6465 22.3959 11.0439 22.3959 11.4583C22.3959 13.8066 21.4631 16.0587 19.8026 17.7192C18.1421 19.3796 15.89 20.3125 13.5417 20.3125H11.0605C11.3304 20.616 11.4715 21.0127 11.4539 21.4184C11.4363 21.8242 11.2614 22.2072 10.9663 22.4862C10.6712 22.7652 10.279 22.9184 9.87285 22.9132C9.46673 22.908 9.07859 22.7448 8.79071 22.4583L6.19279 19.8604C5.89932 19.5709 5.73263 19.1768 5.72925 18.7646V18.7354C5.73237 18.3489 5.87716 17.9958 6.11258 17.725L6.18654 17.6448L8.79071 15.0406C9.0754 14.7395 9.46806 14.5638 9.8823 14.5522C10.2965 14.5405 10.6984 14.6939 10.9996 14.9786C11.3007 15.2633 11.4764 15.656 11.488 16.0702C11.4996 16.4845 11.3462 16.8864 11.0615 17.1875H13.5417C15.0612 17.1875 16.5185 16.5839 17.5929 15.5094C18.6673 14.435 19.2709 12.9778 19.2709 11.4583C19.2709 11.0439 19.4355 10.6465 19.7286 10.3535C20.0216 10.0604 20.419 9.89582 20.8334 9.89582ZM16.2084 2.54165L18.8126 5.14582C19.1052 5.43879 19.2695 5.83592 19.2695 6.24998C19.2695 6.66405 19.1052 7.06118 18.8126 7.35415L16.2084 9.95832C15.9198 10.2413 15.5327 10.4015 15.1285 10.4052C14.7243 10.4088 14.3344 10.2557 14.0407 9.97791C13.747 9.70014 13.5724 9.31936 13.5536 8.91557C13.5348 8.51178 13.6731 8.1164 13.9397 7.81248H11.4584C9.93894 7.81248 8.48171 8.41609 7.40728 9.49052C6.33285 10.5649 5.72925 12.0222 5.72925 13.5416C5.72925 13.9561 5.56463 14.3535 5.2716 14.6465C4.97858 14.9395 4.58115 15.1041 4.16675 15.1041C3.75235 15.1041 3.35492 14.9395 3.06189 14.6465C2.76887 14.3535 2.60425 13.9561 2.60425 13.5416C2.60425 11.1934 3.5371 8.94129 5.19757 7.28081C6.85805 5.62033 9.11014 4.68748 11.4584 4.68748H13.9397C13.6698 4.38398 13.5287 3.9873 13.5462 3.58153C13.5638 3.17575 13.7387 2.79277 14.0339 2.51375C14.329 2.23472 14.7212 2.08159 15.1273 2.0868C15.5334 2.09201 15.9205 2.25515 16.2084 2.54165Z" fill="black"/>
</g>
<defs>
<clipPath id="clip0_12_4958">
<rect width="25" height="25" fill="white"/>
</clipPath>
</defs>
</svg>
