<svg width="14" height="14" viewBox="0 0 14 14" fill="none" xmlns="http://www.w3.org/2000/svg">
<g clip-path="url(#clip0_19_1201)">
<path d="M13.2945 11.5849L10.1852 8.47556C10.6699 7.67997 10.9256 6.766 10.924 5.83438C10.924 3.02288 8.48775 0.587402 5.67625 0.587402C5.00781 0.587294 4.3459 0.718873 3.72833 0.974622C3.11075 1.23037 2.54961 1.60528 2.07696 2.07794C1.6043 2.55059 1.22939 3.11173 0.973645 3.72931C0.717896 4.34688 0.586318 5.00879 0.586426 5.67722C0.586426 8.4879 3.02273 10.9242 5.8334 10.9242C6.73433 10.925 7.61913 10.6853 8.39641 10.2298L11.5222 13.3572C11.6692 13.5038 11.8684 13.5862 12.076 13.5862C12.2836 13.5862 12.4827 13.5038 12.6297 13.3572L13.4056 12.5813C13.7109 12.2761 13.5998 11.8902 13.2945 11.5849ZM2.15303 5.67722C2.15292 5.21448 2.24397 4.75625 2.42098 4.3287C2.59799 3.90114 2.8575 3.51265 3.18467 3.1854C3.51184 2.85815 3.90027 2.59856 4.32778 2.42145C4.75529 2.24434 5.2135 2.15318 5.67625 2.15319C7.62299 2.15319 9.35744 3.88682 9.35744 5.83438C9.35722 6.76894 8.98587 7.66517 8.32503 8.32601C7.66419 8.98685 6.76797 9.3582 5.8334 9.35842C3.88666 9.35759 2.15303 7.62314 2.15303 5.67722Z" fill="black"/>
</g>
<defs>
<clipPath id="clip0_19_1201">
<rect width="14" height="14" fill="white"/>
</clipPath>
</defs>
</svg>
