<svg width="22" height="22" viewBox="0 0 22 22" fill="none" xmlns="http://www.w3.org/2000/svg">
<g clip-path="url(#clip0_207_979)">
<path d="M21.1149 18.3526L16.0921 13.3298C16.8751 12.0446 17.2881 10.5682 17.2857 9.06329C17.2857 4.52164 13.3501 0.587402 8.80845 0.587402C7.72867 0.587228 6.65943 0.799778 5.66181 1.21291C4.66419 1.62604 3.75773 2.23167 2.99421 2.99519C2.23069 3.75871 1.62507 4.66516 1.21193 5.66278C0.798801 6.6604 0.586251 7.72964 0.586426 8.80942C0.586426 13.3497 4.52199 17.2853 9.06231 17.2853C10.5176 17.2866 11.9469 16.8993 13.2026 16.1635L18.2519 21.2156C18.4894 21.4524 18.8111 21.5854 19.1464 21.5854C19.4818 21.5854 19.8035 21.4524 20.041 21.2156L21.2943 19.9622C21.7874 19.4691 21.608 18.8457 21.1149 18.3526ZM3.1171 8.80942C3.11692 8.06191 3.264 7.32169 3.54994 6.63103C3.83588 5.94037 4.25508 5.3128 4.78358 4.78417C5.31209 4.25554 5.93956 3.8362 6.63015 3.5501C7.32075 3.264 8.06094 3.11674 8.80845 3.11674C11.9532 3.11674 14.755 5.91723 14.755 9.06329C14.7546 10.573 14.1548 12.0207 13.0873 13.0882C12.0197 14.1557 10.572 14.7556 9.06231 14.756C5.91758 14.7546 3.1171 11.9528 3.1171 8.80942Z" fill="white"/>
</g>
<defs>
<clipPath id="clip0_207_979">
<rect width="22" height="22" fill="white"/>
</clipPath>
</defs>
</svg>
