<svg width="46" height="46" viewBox="0 0 46 46" fill="none" xmlns="http://www.w3.org/2000/svg">
<path fill-rule="evenodd" clip-rule="evenodd" d="M42.2001 23C42.2001 28.0922 40.1772 32.9758 36.5765 36.5765C32.9758 40.1772 28.0922 42.2001 23 42.2001C17.9079 42.2001 13.0243 40.1772 9.4236 36.5765C5.8229 32.9758 3.80005 28.0922 3.80005 23C3.80005 17.9079 5.8229 13.0243 9.4236 9.4236C13.0243 5.8229 17.9079 3.80005 23 3.80005C28.0922 3.80005 32.9758 5.8229 36.5765 9.4236C40.1772 13.0243 42.2001 17.9079 42.2001 23ZM29 17C29 18.5913 28.3679 20.1175 27.2427 21.2427C26.1175 22.3679 24.5913 23 23 23C21.4088 23 19.8826 22.3679 18.7574 21.2427C17.6322 20.1175 17 18.5913 17 17C17 15.4088 17.6322 13.8826 18.7574 12.7574C19.8826 11.6322 21.4088 11 23 11C24.5913 11 26.1175 11.6322 27.2427 12.7574C28.3679 13.8826 29 15.4088 29 17ZM23 27.8C20.7691 27.798 18.5682 28.3152 16.5717 29.3108C14.5751 30.3064 12.8377 31.7529 11.4968 33.5361C12.9566 35.1337 14.7337 36.4093 16.7144 37.2812C18.6951 38.1532 20.8359 38.6024 23 38.6001C25.1642 38.6024 27.305 38.1532 29.2857 37.2812C31.2664 36.4093 33.0435 35.1337 34.5033 33.5361C33.1624 31.7529 31.425 30.3064 29.4284 29.3108C27.4319 28.3152 25.231 27.798 23 27.8Z" fill="black"/>
</svg>
